<?xml version="1.0" encoding="utf-8"?>
<!-- Generator: Adobe Adobe Illustrator 24.2.0, SVG Export Plug-In . SVG Version: 6.00 Build 0)  -->
<svg version="1.1" xmlns="http://www.w3.org/2000/svg" xmlns:xlink="http://www.w3.org/1999/xlink" x="0px" y="0px"
	 viewBox="0 0 2550 2580" style="enable-background:new 0 0 2550 2580;" xml:space="preserve">
<style type="text/css">
	.st0{opacity:0.4392;fill:url(#SVGID_1_);}
	.st1{opacity:0.4392;fill:url(#SVGID_2_);}
	.st2{opacity:0.4392;fill:url(#SVGID_3_);}
	.st3{opacity:0.4392;fill:url(#SVGID_4_);}
	.st4{opacity:0.4392;fill:url(#SVGID_5_);}
	.st5{opacity:0.4392;fill:url(#SVGID_6_);}
	.st6{display:none;}
	.st7{display:inline;fill:#211626;stroke:#000000;stroke-miterlimit:10;}
	.st8{display:inline;}
	.st9{opacity:0.4392;fill:url(#SVGID_7_);}
	.st10{display:inline;opacity:0.4392;fill:url(#SVGID_8_);}
	.st11{display:inline;opacity:0.4392;fill:url(#SVGID_9_);}
	.st12{display:inline;opacity:0.4392;fill:url(#SVGID_10_);}
	.st13{display:inline;opacity:0.4392;fill:url(#SVGID_11_);}
	.st14{display:inline;opacity:0.4392;fill:url(#SVGID_12_);}
	.st15{display:inline;opacity:0.4392;fill:url(#SVGID_13_);}
</style>
<g id="Layer_1">
	<g id="Layer_2">
		<g>
			<g>
				<g>
					
						<linearGradient id="SVGID_1_" gradientUnits="userSpaceOnUse" x1="1677.8948" y1="1716.0754" x2="2977.3865" y2="1716.0754" gradientTransform="matrix(-0.3462 0.5996 -0.8579 -0.4953 3779.0391 621.7156)">
						<stop  offset="0" style="stop-color:#E8DB61;stop-opacity:0.4118"/>
						<stop  offset="1" style="stop-color:#FF1C42"/>
					</linearGradient>
					<polygon class="st0" points="1601.1,820.95 1800.99,821.16 1351.11,1600.37 1251.11,1427.16 					"/>
					
						<linearGradient id="SVGID_2_" gradientUnits="userSpaceOnUse" x1="952.5527" y1="1771.3574" x2="2048.8657" y2="1771.3574" gradientTransform="matrix(-1 0 0 -1 2550 2680)">
						<stop  offset="0" style="stop-color:#FFFF00;stop-opacity:0.1804"/>
						<stop  offset="1" style="stop-color:#FF371C"/>
					</linearGradient>
					<polygon class="st1" points="1597.45,823.09 1497.42,996.34 600.63,993.27 501.13,820.94 					"/>
					
						<linearGradient id="SVGID_3_" gradientUnits="userSpaceOnUse" x1="1202.7346" y1="1609.7985" x2="2604.7888" y2="1609.7985" gradientTransform="matrix(-0.5002 -0.8659 0.8659 -0.5002 483.2253 3837.1648)">
						<stop  offset="0" style="stop-color:#00FFAE;stop-opacity:0.1804"/>
						<stop  offset="1" style="stop-color:#1CC6FF"/>
					</linearGradient>
					<polygon class="st2" points="1351.13,1946.73 1201.13,2033.38 498.43,820.14 698.91,820.97 					"/>
					
						<linearGradient id="SVGID_4_" gradientUnits="userSpaceOnUse" x1="1932.6991" y1="1215.0643" x2="926.3351" y2="1191.9093" gradientTransform="matrix(-0.5 -0.866 0.866 -0.5 827.1348 3276.7266)">
						<stop  offset="0" style="stop-color:#A6A7FF;stop-opacity:0.1804"/>
						<stop  offset="1" style="stop-color:#CE1CFF"/>
					</linearGradient>
					<polygon class="st3" points="1450.53,1774.57 1351.13,1946.74 801.11,994.11 1002.03,994.15 					"/>
					
						<linearGradient id="SVGID_5_" gradientUnits="userSpaceOnUse" x1="2279.6318" y1="1695.4961" x2="910.4733" y2="1679.0167" gradientTransform="matrix(0.5 -0.866 0.866 0.5 -628.7681 1827.1124)">
						<stop  offset="0" style="stop-color:#78C9F5;stop-opacity:0.1804"/>
						<stop  offset="1" style="stop-color:#7700FF"/>
					</linearGradient>
					<polygon class="st4" points="1351.57,1946.74 1251.45,1773.29 1899.71,646.62 2051.57,734.3 					"/>
					
						<linearGradient id="SVGID_6_" gradientUnits="userSpaceOnUse" x1="648.8672" y1="1944.5872" x2="2048.8672" y2="1944.5872" gradientTransform="matrix(-1 0 0 -1 2550 2680)">
						<stop  offset="0" style="stop-color:#00FFFB;stop-opacity:0.1804"/>
						<stop  offset="1" style="stop-color:#1CC6FF"/>
					</linearGradient>
					<polygon class="st5" points="1901.13,647.74 1800.99,821.16 501.13,823.09 501.13,647.74 					"/>
				</g>
			</g>
		</g>
	</g>
	<g class="st6">
		<polyline class="st7" points="1270.02,1405.51 1020.05,1838.48 920.03,2011.72 920.02,2011.73 		"/>
		<polyline class="st7" points="1170.02,1232.3 1270.02,1405.51 1520.02,1838.52 		"/>
		<line class="st7" x1="1720.02" y1="1838.56" x2="1170.02" y2="885.93"/>
		<line class="st7" x1="2020" y1="2011.73" x2="1320" y2="799.29"/>
		<line class="st7" x1="470" y1="2098.37" x2="1170" y2="885.93"/>
		<polyline class="st7" points="620,2184.93 620.02,2184.93 2020,2184.93 		"/>
		<line class="st7" x1="1170.02" y1="1232.3" x2="620.02" y2="2184.93"/>
		<polyline class="st7" points="920,2011.72 920.03,2011.72 2020,2011.73 		"/>
		<line class="st7" x1="1720.02" y1="1838.56" x2="1020.02" y2="1838.48"/>
		<line class="st7" x1="2020" y1="2184.93" x2="2020" y2="2011.73"/>
		<line class="st7" x1="1170" y1="885.94" x2="1320" y2="799.28"/>
		<line class="st7" x1="470" y1="2098.37" x2="620.02" y2="2184.93"/>
	</g>
	<g class="st6">
		<g class="st8">
			<linearGradient id="SVGID_7_" gradientUnits="userSpaceOnUse" x1="1196.5" y1="1452.5" x2="1196.5" y2="1452.5">
				<stop  offset="0" style="stop-color:#00FFFB;stop-opacity:0.1804"/>
				<stop  offset="1" style="stop-color:#1CC6FF"/>
			</linearGradient>
			<path class="st9" d="M2020,2012.52l2.7,0.01L1320,799.29l-150,86.65l552,952.78l-47.28-0.16l45.3,0.01L1170,885.93l-0.22,0.38
				l-0.22-0.38l-700,1212.44l151.86,87.68l0.64-1.11H2020V2012.52z M1396.96,2010.5l-476.64,0.71l349.69-605.7l-99.92-173.07
				l0.35-0.6l348.37,606.17l-495.1-1.7l-100.03,173.25L1396.96,2010.5z"/>
		</g>
	</g>
</g>
<g id="Temp" class="st6">
</g>
</svg>
